<mxfile host="65bd71144e">
    <diagram name="Επιλογή Μέσου Μετακίνησης" id="LMLPMtf7ALw_Q4-HfFrC">
        <mxGraphModel dx="680" dy="1740" grid="1" gridSize="10" guides="1" tooltips="1" connect="1" arrows="1" fold="1" page="1" pageScale="1" pageWidth="827" pageHeight="1169" math="0" shadow="0">
            <root>
                <mxCell id="0"/>
                <mxCell id="1" parent="0"/>
                <mxCell id="86" value="" style="edgeStyle=none;html=1;rounded=0;strokeColor=#b85450;fillColor=#f8cecc;strokeWidth=2;exitX=0.599;exitY=-0.031;exitDx=0;exitDy=0;exitPerimeter=0;" parent="1" source="71" target="85" edge="1">
                    <mxGeometry relative="1" as="geometry"/>
                </mxCell>
                <mxCell id="71" value="Μήνυμα σφάλματος" style="shape=umlBoundary;whiteSpace=wrap;html=1;fillColor=none;strokeColor=#b85450;strokeWidth=2;" parent="1" vertex="1">
                    <mxGeometry x="640" y="921.39" width="90" height="70" as="geometry"/>
                </mxCell>
                <mxCell id="Tk8j7c15YgIE_sbvmRS2-9" style="rounded=0;orthogonalLoop=1;jettySize=auto;html=1;exitX=1;exitY=0.3333333333333333;exitDx=0;exitDy=0;exitPerimeter=0;entryX=-0.039;entryY=0.549;entryDx=0;entryDy=0;entryPerimeter=0;" parent="1" source="Tk8j7c15YgIE_sbvmRS2-1" target="Tk8j7c15YgIE_sbvmRS2-7" edge="1">
                    <mxGeometry relative="1" as="geometry"/>
                </mxCell>
                <mxCell id="Tk8j7c15YgIE_sbvmRS2-10" value="Επιλογή &quot;Εντός&lt;div&gt;Πόλης&quot;&lt;br&gt;&lt;/div&gt;" style="edgeLabel;html=1;align=center;verticalAlign=middle;resizable=0;points=[];" parent="Tk8j7c15YgIE_sbvmRS2-9" vertex="1" connectable="0">
                    <mxGeometry x="-0.3998" relative="1" as="geometry">
                        <mxPoint x="46" y="-77" as="offset"/>
                    </mxGeometry>
                </mxCell>
                <mxCell id="5Ba9WoWl8ZpEdoUwCl-l-32" value="Επιλογή Οχήματος" style="edgeStyle=none;rounded=0;orthogonalLoop=1;jettySize=auto;html=1;exitX=1;exitY=0.3333333333333333;exitDx=0;exitDy=0;exitPerimeter=0;entryX=-0.022;entryY=0.498;entryDx=0;entryDy=0;entryPerimeter=0;" parent="1" source="Tk8j7c15YgIE_sbvmRS2-1" target="5Ba9WoWl8ZpEdoUwCl-l-30" edge="1">
                    <mxGeometry relative="1" as="geometry"/>
                </mxCell>
                <mxCell id="22" style="edgeStyle=none;html=1;exitX=1;exitY=0.3333333333333333;exitDx=0;exitDy=0;exitPerimeter=0;entryX=-0.026;entryY=0.505;entryDx=0;entryDy=0;entryPerimeter=0;rounded=0;strokeColor=#b85450;fillColor=#f8cecc;strokeWidth=2;" parent="1" source="Tk8j7c15YgIE_sbvmRS2-1" target="20" edge="1">
                    <mxGeometry relative="1" as="geometry"/>
                </mxCell>
                <mxCell id="119" style="edgeStyle=none;html=1;entryX=0.6;entryY=-0.014;entryDx=0;entryDy=0;entryPerimeter=0;exitX=1;exitY=0.3333333333333333;exitDx=0;exitDy=0;exitPerimeter=0;" parent="1" source="Tk8j7c15YgIE_sbvmRS2-1" target="5Ba9WoWl8ZpEdoUwCl-l-23" edge="1">
                    <mxGeometry relative="1" as="geometry">
                        <mxPoint x="150" y="380" as="sourcePoint"/>
                        <Array as="points">
                            <mxPoint x="150" y="-110"/>
                            <mxPoint x="1100" y="-110"/>
                        </Array>
                    </mxGeometry>
                </mxCell>
                <mxCell id="121" style="edgeStyle=none;html=1;exitX=1;exitY=0.3333333333333333;exitDx=0;exitDy=0;exitPerimeter=0;entryX=0.005;entryY=0.453;entryDx=0;entryDy=0;entryPerimeter=0;rounded=0;strokeColor=#b85450;fillColor=#f8cecc;strokeWidth=2;" parent="1" source="Tk8j7c15YgIE_sbvmRS2-1" target="4" edge="1">
                    <mxGeometry relative="1" as="geometry">
                        <Array as="points">
                            <mxPoint x="200" y="170"/>
                            <mxPoint x="260" y="-68"/>
                        </Array>
                    </mxGeometry>
                </mxCell>
                <mxCell id="122" value="Επιλογή&lt;br&gt;&quot;Φόρτιση&quot;" style="edgeLabel;html=1;align=center;verticalAlign=middle;resizable=0;points=[];" parent="121" connectable="0" vertex="1">
                    <mxGeometry x="-0.4328" y="3" relative="1" as="geometry">
                        <mxPoint as="offset"/>
                    </mxGeometry>
                </mxCell>
                <mxCell id="Tk8j7c15YgIE_sbvmRS2-1" value="Πελάτης" style="shape=umlActor;verticalLabelPosition=bottom;verticalAlign=top;html=1;" parent="1" vertex="1">
                    <mxGeometry x="120" y="370" width="30" height="60" as="geometry"/>
                </mxCell>
                <mxCell id="5Ba9WoWl8ZpEdoUwCl-l-9" value="" style="rounded=0;orthogonalLoop=1;jettySize=auto;html=1;" parent="1" source="Tk8j7c15YgIE_sbvmRS2-7" target="5Ba9WoWl8ZpEdoUwCl-l-8" edge="1">
                    <mxGeometry relative="1" as="geometry"/>
                </mxCell>
                <mxCell id="Tk8j7c15YgIE_sbvmRS2-7" value="Αρχική Οθόνη" style="shape=umlBoundary;whiteSpace=wrap;html=1;" parent="1" vertex="1">
                    <mxGeometry x="300" y="35" width="90" height="70" as="geometry"/>
                </mxCell>
                <mxCell id="5Ba9WoWl8ZpEdoUwCl-l-12" value="" style="edgeStyle=none;rounded=0;orthogonalLoop=1;jettySize=auto;html=1;fillColor=#f8cecc;strokeColor=#b85450;strokeWidth=2;" parent="1" source="5Ba9WoWl8ZpEdoUwCl-l-8" target="5Ba9WoWl8ZpEdoUwCl-l-10" edge="1">
                    <mxGeometry relative="1" as="geometry"/>
                </mxCell>
                <mxCell id="5Ba9WoWl8ZpEdoUwCl-l-46" value="Ναι" style="edgeLabel;html=1;align=center;verticalAlign=middle;resizable=0;points=[];" parent="5Ba9WoWl8ZpEdoUwCl-l-12" vertex="1" connectable="0">
                    <mxGeometry x="-0.1753" y="-3" relative="1" as="geometry">
                        <mxPoint as="offset"/>
                    </mxGeometry>
                </mxCell>
                <mxCell id="3" value="" style="edgeStyle=none;html=1;endArrow=none;endFill=0;" parent="1" source="5Ba9WoWl8ZpEdoUwCl-l-8" target="2" edge="1">
                    <mxGeometry relative="1" as="geometry"/>
                </mxCell>
                <mxCell id="5Ba9WoWl8ZpEdoUwCl-l-8" value="Έχει ο πελάτης χρέος;" style="ellipse;shape=umlControl;whiteSpace=wrap;html=1;" parent="1" vertex="1">
                    <mxGeometry x="430" y="30" width="70" height="80" as="geometry"/>
                </mxCell>
                <mxCell id="5" style="edgeStyle=none;html=1;entryX=-0.001;entryY=0.522;entryDx=0;entryDy=0;entryPerimeter=0;rounded=0;strokeColor=#b85450;fillColor=#f8cecc;strokeWidth=2;" parent="1" source="5Ba9WoWl8ZpEdoUwCl-l-10" target="4" edge="1">
                    <mxGeometry relative="1" as="geometry"/>
                </mxCell>
                <mxCell id="5Ba9WoWl8ZpEdoUwCl-l-10" value="Εμφάνισε" style="ellipse;shape=umlControl;whiteSpace=wrap;html=1;fillColor=default;strokeColor=#b85450;strokeWidth=2;" parent="1" vertex="1">
                    <mxGeometry x="550" y="-50" width="70" height="80" as="geometry"/>
                </mxCell>
                <mxCell id="41" style="edgeStyle=none;html=1;entryX=1.008;entryY=0.254;entryDx=0;entryDy=0;entryPerimeter=0;" parent="1" source="5Ba9WoWl8ZpEdoUwCl-l-13" target="5Ba9WoWl8ZpEdoUwCl-l-15" edge="1">
                    <mxGeometry relative="1" as="geometry"/>
                </mxCell>
                <mxCell id="5Ba9WoWl8ZpEdoUwCl-l-13" value="Εμφάνισε" style="ellipse;shape=umlControl;whiteSpace=wrap;html=1;" parent="1" vertex="1">
                    <mxGeometry x="610" y="30" width="70" height="80" as="geometry"/>
                </mxCell>
                <mxCell id="5Ba9WoWl8ZpEdoUwCl-l-14" value="Όχι" style="edgeStyle=none;rounded=0;orthogonalLoop=1;jettySize=auto;html=1;entryX=0;entryY=0.53;entryDx=0;entryDy=0;entryPerimeter=0;" parent="1" source="5Ba9WoWl8ZpEdoUwCl-l-8" target="5Ba9WoWl8ZpEdoUwCl-l-13" edge="1">
                    <mxGeometry relative="1" as="geometry"/>
                </mxCell>
                <mxCell id="40" style="edgeStyle=none;html=1;entryX=-0.013;entryY=0.605;entryDx=0;entryDy=0;entryPerimeter=0;exitX=1.025;exitY=0.519;exitDx=0;exitDy=0;exitPerimeter=0;" parent="1" source="5Ba9WoWl8ZpEdoUwCl-l-15" target="5Ba9WoWl8ZpEdoUwCl-l-59" edge="1">
                    <mxGeometry relative="1" as="geometry"/>
                </mxCell>
                <mxCell id="5Ba9WoWl8ZpEdoUwCl-l-15" value="Οθόνη &quot;Εντός Πόλης&quot;" style="shape=umlBoundary;whiteSpace=wrap;html=1;" parent="1" vertex="1">
                    <mxGeometry x="310" y="148" width="90" height="70" as="geometry"/>
                </mxCell>
                <mxCell id="5Ba9WoWl8ZpEdoUwCl-l-16" style="edgeStyle=none;rounded=0;orthogonalLoop=1;jettySize=auto;html=1;exitX=1;exitY=0.3333333333333333;exitDx=0;exitDy=0;exitPerimeter=0;entryX=-0.013;entryY=0.523;entryDx=0;entryDy=0;entryPerimeter=0;" parent="1" source="Tk8j7c15YgIE_sbvmRS2-1" target="5Ba9WoWl8ZpEdoUwCl-l-15" edge="1">
                    <mxGeometry relative="1" as="geometry"/>
                </mxCell>
                <mxCell id="5Ba9WoWl8ZpEdoUwCl-l-18" value="Επιλογή Κατηγορίας&lt;br&gt;&amp;nbsp;Οχήματος" style="edgeLabel;html=1;align=center;verticalAlign=middle;resizable=0;points=[];" parent="5Ba9WoWl8ZpEdoUwCl-l-16" vertex="1" connectable="0">
                    <mxGeometry x="0.1198" y="2" relative="1" as="geometry">
                        <mxPoint x="14" as="offset"/>
                    </mxGeometry>
                </mxCell>
                <mxCell id="5Ba9WoWl8ZpEdoUwCl-l-29" value="" style="edgeStyle=none;rounded=0;orthogonalLoop=1;jettySize=auto;html=1;" parent="1" source="5Ba9WoWl8ZpEdoUwCl-l-20" target="5Ba9WoWl8ZpEdoUwCl-l-26" edge="1">
                    <mxGeometry relative="1" as="geometry"/>
                </mxCell>
                <mxCell id="5Ba9WoWl8ZpEdoUwCl-l-20" value="Εισαγωγή Τοποθεσίας" style="ellipse;whiteSpace=wrap;html=1;" parent="1" vertex="1">
                    <mxGeometry x="1037.5" y="530" width="120" height="60" as="geometry"/>
                </mxCell>
                <mxCell id="5Ba9WoWl8ZpEdoUwCl-l-24" value="" style="edgeStyle=none;rounded=0;orthogonalLoop=1;jettySize=auto;html=1;entryX=0.312;entryY=0.109;entryDx=0;entryDy=0;entryPerimeter=0;" parent="1" source="5Ba9WoWl8ZpEdoUwCl-l-21" target="5Ba9WoWl8ZpEdoUwCl-l-23" edge="1">
                    <mxGeometry relative="1" as="geometry">
                        <mxPoint x="1064" y="210" as="targetPoint"/>
                    </mxGeometry>
                </mxCell>
                <mxCell id="5Ba9WoWl8ZpEdoUwCl-l-21" value="Εμφάνισε" style="ellipse;shape=umlControl;whiteSpace=wrap;html=1;" parent="1" vertex="1">
                    <mxGeometry x="930" y="60" width="70" height="80" as="geometry"/>
                </mxCell>
                <mxCell id="131" value="" style="edgeStyle=none;html=1;" parent="1" source="5Ba9WoWl8ZpEdoUwCl-l-23" target="98" edge="1">
                    <mxGeometry relative="1" as="geometry"/>
                </mxCell>
                <mxCell id="138" value="Εισαγωγή&lt;br&gt;τοποθεσίας" style="edgeStyle=none;html=1;entryX=0.5;entryY=0;entryDx=0;entryDy=0;" parent="1" source="5Ba9WoWl8ZpEdoUwCl-l-23" target="5Ba9WoWl8ZpEdoUwCl-l-20" edge="1">
                    <mxGeometry x="-0.6799" y="2" relative="1" as="geometry">
                        <mxPoint as="offset"/>
                    </mxGeometry>
                </mxCell>
                <mxCell id="5Ba9WoWl8ZpEdoUwCl-l-23" value="Σελίδα Επιλεγμένου Μέσου" style="shape=umlBoundary;whiteSpace=wrap;html=1;" parent="1" vertex="1">
                    <mxGeometry x="1050" y="210" width="90" height="70" as="geometry"/>
                </mxCell>
                <mxCell id="5Ba9WoWl8ZpEdoUwCl-l-28" value="" style="edgeStyle=none;rounded=0;orthogonalLoop=1;jettySize=auto;html=1;endArrow=none;endFill=0;" parent="1" source="5Ba9WoWl8ZpEdoUwCl-l-26" target="5Ba9WoWl8ZpEdoUwCl-l-27" edge="1">
                    <mxGeometry relative="1" as="geometry"/>
                </mxCell>
                <mxCell id="5Ba9WoWl8ZpEdoUwCl-l-31" value="Βρέθηκαν οχήματα" style="edgeStyle=none;rounded=0;orthogonalLoop=1;jettySize=auto;html=1;exitX=0.497;exitY=1.028;exitDx=0;exitDy=0;exitPerimeter=0;" parent="1" source="5Ba9WoWl8ZpEdoUwCl-l-26" target="61" edge="1">
                    <mxGeometry relative="1" as="geometry">
                        <mxPoint x="782" y="650" as="sourcePoint"/>
                        <mxPoint x="896.69" y="630.1700000000001" as="targetPoint"/>
                    </mxGeometry>
                </mxCell>
                <mxCell id="46" value="Δε βρέθηκαν οχήματα" style="edgeStyle=none;html=1;entryX=1.052;entryY=0.562;entryDx=0;entryDy=0;entryPerimeter=0;rounded=0;strokeColor=#b85450;fillColor=#f8cecc;strokeWidth=2;exitX=-0.031;exitY=0.608;exitDx=0;exitDy=0;exitPerimeter=0;" parent="1" source="5Ba9WoWl8ZpEdoUwCl-l-26" target="45" edge="1">
                    <mxGeometry x="-0.0145" y="4" relative="1" as="geometry">
                        <mxPoint as="offset"/>
                    </mxGeometry>
                </mxCell>
                <mxCell id="5Ba9WoWl8ZpEdoUwCl-l-26" value="Ανάκτηση οχημάτων" style="ellipse;shape=umlControl;whiteSpace=wrap;html=1;" parent="1" vertex="1">
                    <mxGeometry x="905" y="520" width="70" height="80" as="geometry"/>
                </mxCell>
                <mxCell id="5Ba9WoWl8ZpEdoUwCl-l-27" value="Βάση Δεδομένων" style="ellipse;shape=umlEntity;whiteSpace=wrap;html=1;" parent="1" vertex="1">
                    <mxGeometry x="1037.5" y="605" width="70" height="70" as="geometry"/>
                </mxCell>
                <mxCell id="5Ba9WoWl8ZpEdoUwCl-l-34" value="" style="edgeStyle=none;rounded=0;orthogonalLoop=1;jettySize=auto;html=1;exitX=-0.033;exitY=0.529;exitDx=0;exitDy=0;exitPerimeter=0;" parent="1" source="5Ba9WoWl8ZpEdoUwCl-l-30" target="5Ba9WoWl8ZpEdoUwCl-l-33" edge="1">
                    <mxGeometry relative="1" as="geometry"/>
                </mxCell>
                <mxCell id="5Ba9WoWl8ZpEdoUwCl-l-30" value="Χάρτης με οχήματα" style="shape=umlBoundary;whiteSpace=wrap;html=1;" parent="1" vertex="1">
                    <mxGeometry x="640" y="665" width="90" height="70" as="geometry"/>
                </mxCell>
                <mxCell id="97" style="edgeStyle=none;html=1;entryX=1.023;entryY=0.55;entryDx=0;entryDy=0;entryPerimeter=0;endArrow=classic;endFill=1;" parent="1" source="5Ba9WoWl8ZpEdoUwCl-l-33" target="5Ba9WoWl8ZpEdoUwCl-l-37" edge="1">
                    <mxGeometry relative="1" as="geometry"/>
                </mxCell>
                <mxCell id="5Ba9WoWl8ZpEdoUwCl-l-33" value="Εμφάνισε" style="ellipse;shape=umlControl;whiteSpace=wrap;html=1;" parent="1" vertex="1">
                    <mxGeometry x="516.48" y="665" width="65" height="70" as="geometry"/>
                </mxCell>
                <mxCell id="5Ba9WoWl8ZpEdoUwCl-l-42" value="Κράτηση" style="edgeStyle=none;rounded=0;orthogonalLoop=1;jettySize=auto;html=1;exitX=0.522;exitY=1.005;exitDx=0;exitDy=0;exitPerimeter=0;" parent="1" source="5Ba9WoWl8ZpEdoUwCl-l-37" target="5Ba9WoWl8ZpEdoUwCl-l-41" edge="1">
                    <mxGeometry relative="1" as="geometry"/>
                </mxCell>
                <mxCell id="84" value="Ακύρωση" style="edgeStyle=none;html=1;rounded=0;strokeColor=#b85450;fillColor=#f8cecc;strokeWidth=2;" parent="1" source="5Ba9WoWl8ZpEdoUwCl-l-37" target="93" edge="1">
                    <mxGeometry relative="1" as="geometry"/>
                </mxCell>
                <mxCell id="5Ba9WoWl8ZpEdoUwCl-l-37" value="Παράθυρο πληροφοριών οχήματος" style="shape=umlBoundary;whiteSpace=wrap;html=1;" parent="1" vertex="1">
                    <mxGeometry x="380.0000000000001" y="660" width="90" height="70" as="geometry"/>
                </mxCell>
                <mxCell id="5Ba9WoWl8ZpEdoUwCl-l-39" style="edgeStyle=none;rounded=0;orthogonalLoop=1;jettySize=auto;html=1;exitX=1;exitY=0.3333333333333333;exitDx=0;exitDy=0;exitPerimeter=0;entryX=0.567;entryY=-0.002;entryDx=0;entryDy=0;entryPerimeter=0;" parent="1" source="Tk8j7c15YgIE_sbvmRS2-1" target="5Ba9WoWl8ZpEdoUwCl-l-37" edge="1">
                    <mxGeometry relative="1" as="geometry"/>
                </mxCell>
                <mxCell id="5Ba9WoWl8ZpEdoUwCl-l-49" value="" style="edgeStyle=none;rounded=0;orthogonalLoop=1;jettySize=auto;html=1;endArrow=none;endFill=0;entryX=1;entryY=0.5;entryDx=0;entryDy=0;" parent="1" source="5Ba9WoWl8ZpEdoUwCl-l-41" target="5Ba9WoWl8ZpEdoUwCl-l-48" edge="1">
                    <mxGeometry relative="1" as="geometry"/>
                </mxCell>
                <mxCell id="5Ba9WoWl8ZpEdoUwCl-l-93" style="edgeStyle=none;rounded=0;orthogonalLoop=1;jettySize=auto;html=1;fillColor=#f8cecc;strokeColor=#b85450;strokeWidth=2;" parent="1" source="5Ba9WoWl8ZpEdoUwCl-l-41" target="5Ba9WoWl8ZpEdoUwCl-l-86" edge="1">
                    <mxGeometry relative="1" as="geometry"/>
                </mxCell>
                <mxCell id="5Ba9WoWl8ZpEdoUwCl-l-95" value="Ναι" style="edgeLabel;html=1;align=center;verticalAlign=middle;resizable=0;points=[];" parent="5Ba9WoWl8ZpEdoUwCl-l-93" vertex="1" connectable="0">
                    <mxGeometry x="-0.2098" y="-3" relative="1" as="geometry">
                        <mxPoint x="-3" as="offset"/>
                    </mxGeometry>
                </mxCell>
                <mxCell id="78" value="Όχι" style="edgeStyle=none;html=1;" parent="1" source="5Ba9WoWl8ZpEdoUwCl-l-41" target="5Ba9WoWl8ZpEdoUwCl-l-50" edge="1">
                    <mxGeometry relative="1" as="geometry"/>
                </mxCell>
                <mxCell id="5Ba9WoWl8ZpEdoUwCl-l-41" value="Έχει γίνει ήδη κράτηση;" style="ellipse;shape=umlControl;whiteSpace=wrap;html=1;" parent="1" vertex="1">
                    <mxGeometry x="390" y="776.39" width="70" height="80" as="geometry"/>
                </mxCell>
                <mxCell id="5Ba9WoWl8ZpEdoUwCl-l-48" value="Βάση Δεδομένων" style="ellipse;shape=umlEntity;whiteSpace=wrap;html=1;" parent="1" vertex="1">
                    <mxGeometry x="293.24" y="841.3900000000001" width="70" height="70" as="geometry"/>
                </mxCell>
                <mxCell id="80" style="edgeStyle=none;html=1;entryX=0.5;entryY=0;entryDx=0;entryDy=0;" parent="1" source="5Ba9WoWl8ZpEdoUwCl-l-50" target="142" edge="1">
                    <mxGeometry relative="1" as="geometry">
                        <mxPoint x="424.6500000000003" y="1031.9999999999995" as="targetPoint"/>
                    </mxGeometry>
                </mxCell>
                <mxCell id="145" style="edgeStyle=none;html=1;entryX=1;entryY=0.5;entryDx=0;entryDy=0;endArrow=none;endFill=0;" parent="1" source="5Ba9WoWl8ZpEdoUwCl-l-50" target="5Ba9WoWl8ZpEdoUwCl-l-48" edge="1">
                    <mxGeometry relative="1" as="geometry"/>
                </mxCell>
                <mxCell id="5Ba9WoWl8ZpEdoUwCl-l-50" value="Αποθήκευση κράτησης" style="ellipse;shape=umlControl;whiteSpace=wrap;html=1;" parent="1" vertex="1">
                    <mxGeometry x="390.00000000000006" y="911.3900000000003" width="70" height="80" as="geometry"/>
                </mxCell>
                <mxCell id="5Ba9WoWl8ZpEdoUwCl-l-64" style="edgeStyle=none;rounded=0;orthogonalLoop=1;jettySize=auto;html=1;entryX=0.433;entryY=1.057;entryDx=0;entryDy=0;entryPerimeter=0;endArrow=none;endFill=0;" parent="1" source="5Ba9WoWl8ZpEdoUwCl-l-59" target="5Ba9WoWl8ZpEdoUwCl-l-60" edge="1">
                    <mxGeometry relative="1" as="geometry"/>
                </mxCell>
                <mxCell id="38" value="Όχι" style="edgeStyle=none;html=1;" parent="1" source="5Ba9WoWl8ZpEdoUwCl-l-59" target="5Ba9WoWl8ZpEdoUwCl-l-21" edge="1">
                    <mxGeometry relative="1" as="geometry"/>
                </mxCell>
                <mxCell id="5Ba9WoWl8ZpEdoUwCl-l-59" value="Απαιτεί το επιλεγμένο όχημα δίπλωμα;" style="ellipse;shape=umlControl;whiteSpace=wrap;html=1;fillColor=default;strokeColor=default;strokeWidth=1;fontColor=default;" parent="1" vertex="1">
                    <mxGeometry x="595" y="119.75" width="100" height="104.5" as="geometry"/>
                </mxCell>
                <mxCell id="5Ba9WoWl8ZpEdoUwCl-l-60" value="Rental" style="ellipse;shape=umlEntity;whiteSpace=wrap;html=1;fillColor=default;strokeColor=default;strokeWidth=1;" parent="1" vertex="1">
                    <mxGeometry x="710" y="20" width="70" height="70" as="geometry"/>
                </mxCell>
                <mxCell id="5Ba9WoWl8ZpEdoUwCl-l-70" style="edgeStyle=none;rounded=0;orthogonalLoop=1;jettySize=auto;html=1;fillColor=#f8cecc;strokeColor=#b85450;strokeWidth=2;entryX=0.517;entryY=0.025;entryDx=0;entryDy=0;entryPerimeter=0;exitX=0.578;exitY=1.002;exitDx=0;exitDy=0;exitPerimeter=0;" parent="1" source="5Ba9WoWl8ZpEdoUwCl-l-59" target="12" edge="1">
                    <mxGeometry relative="1" as="geometry">
                        <mxPoint x="639.7999999999965" y="240" as="targetPoint"/>
                        <mxPoint x="670" y="220" as="sourcePoint"/>
                    </mxGeometry>
                </mxCell>
                <mxCell id="5Ba9WoWl8ZpEdoUwCl-l-71" value="Ναι" style="edgeLabel;html=1;align=center;verticalAlign=middle;resizable=0;points=[];" parent="5Ba9WoWl8ZpEdoUwCl-l-70" vertex="1" connectable="0">
                    <mxGeometry x="-0.1697" y="3" relative="1" as="geometry">
                        <mxPoint x="-1" as="offset"/>
                    </mxGeometry>
                </mxCell>
                <mxCell id="75" value="" style="edgeStyle=none;html=1;rounded=0;strokeColor=#b85450;fillColor=#f8cecc;strokeWidth=2;" parent="1" source="5Ba9WoWl8ZpEdoUwCl-l-86" target="71" edge="1">
                    <mxGeometry relative="1" as="geometry"/>
                </mxCell>
                <mxCell id="5Ba9WoWl8ZpEdoUwCl-l-86" value="Εμφάνισε" style="ellipse;shape=umlControl;whiteSpace=wrap;html=1;fillColor=none;strokeColor=#b85450;strokeWidth=2;" parent="1" vertex="1">
                    <mxGeometry x="500" y="916.39" width="70" height="80" as="geometry"/>
                </mxCell>
                <mxCell id="2" value="Wallet" style="ellipse;shape=umlEntity;whiteSpace=wrap;html=1;" parent="1" vertex="1">
                    <mxGeometry x="350" y="-60" width="70" height="70" as="geometry"/>
                </mxCell>
                <mxCell id="42" value="" style="edgeStyle=none;html=1;rounded=0;strokeColor=#b85450;fillColor=#f8cecc;strokeWidth=2;entryX=0;entryY=0.5;entryDx=0;entryDy=0;" parent="1" source="4" target="123" edge="1">
                    <mxGeometry relative="1" as="geometry">
                        <mxPoint x="810.000000000002" y="-10" as="targetPoint"/>
                    </mxGeometry>
                </mxCell>
                <mxCell id="4" value="Μήνυμα ύπαρξης χρέους" style="shape=umlBoundary;whiteSpace=wrap;html=1;fillColor=none;strokeColor=#b85450;strokeWidth=2;" parent="1" vertex="1">
                    <mxGeometry x="681.62" y="-100" width="90" height="70" as="geometry"/>
                </mxCell>
                <mxCell id="14" value="" style="edgeStyle=none;html=1;rounded=0;strokeColor=#b85450;fillColor=#f8cecc;strokeWidth=2;endArrow=none;endFill=0;" parent="1" source="12" target="13" edge="1">
                    <mxGeometry relative="1" as="geometry"/>
                </mxCell>
                <mxCell id="16" value="Ναι" style="edgeStyle=none;html=1;entryX=-0.02;entryY=0.532;entryDx=0;entryDy=0;entryPerimeter=0;rounded=0;strokeColor=#b85450;fillColor=#f8cecc;strokeWidth=2;" parent="1" source="12" target="15" edge="1">
                    <mxGeometry relative="1" as="geometry"/>
                </mxCell>
                <mxCell id="18" value="Όχι" style="edgeStyle=none;html=1;entryX=1.008;entryY=0.53;entryDx=0;entryDy=0;entryPerimeter=0;rounded=0;strokeColor=#b85450;fillColor=#f8cecc;strokeWidth=2;" parent="1" source="12" target="17" edge="1">
                    <mxGeometry relative="1" as="geometry"/>
                </mxCell>
                <mxCell id="12" value="Έχει συνδέσει δίπλωμα;" style="ellipse;shape=umlControl;whiteSpace=wrap;html=1;fillColor=none;strokeColor=#b85450;strokeWidth=2;" parent="1" vertex="1">
                    <mxGeometry x="620" y="260" width="70" height="80" as="geometry"/>
                </mxCell>
                <mxCell id="13" value="Customer" style="ellipse;shape=umlEntity;whiteSpace=wrap;html=1;fillColor=none;strokeColor=#b85450;strokeWidth=2;" parent="1" vertex="1">
                    <mxGeometry x="760" y="154.25" width="70" height="70" as="geometry"/>
                </mxCell>
                <mxCell id="32" value="Όχι" style="edgeStyle=none;html=1;entryX=0.286;entryY=0.125;entryDx=0;entryDy=0;entryPerimeter=0;rounded=0;strokeColor=#b85450;fillColor=#f8cecc;strokeWidth=2;" parent="1" source="15" target="31" edge="1">
                    <mxGeometry relative="1" as="geometry"/>
                </mxCell>
                <mxCell id="39" value="Ναι" style="edgeStyle=none;html=1;rounded=0;strokeColor=#b85450;fillColor=#f8cecc;strokeWidth=2;" parent="1" source="15" target="5Ba9WoWl8ZpEdoUwCl-l-21" edge="1">
                    <mxGeometry relative="1" as="geometry"/>
                </mxCell>
                <mxCell id="15" value="Το δίπλωμα αφορά το επιλεγμένο μέσο;" style="ellipse;shape=umlControl;whiteSpace=wrap;html=1;fillColor=none;strokeColor=#b85450;strokeWidth=2;" parent="1" vertex="1">
                    <mxGeometry x="910" y="218" width="90" height="80" as="geometry"/>
                </mxCell>
                <mxCell id="43" style="edgeStyle=none;html=1;entryX=0.574;entryY=-0.017;entryDx=0;entryDy=0;entryPerimeter=0;rounded=0;strokeColor=#b85450;fillColor=#f8cecc;strokeWidth=2;" parent="1" source="17" target="20" edge="1">
                    <mxGeometry relative="1" as="geometry"/>
                </mxCell>
                <mxCell id="17" value="Εμφάνισε" style="ellipse;shape=umlControl;whiteSpace=wrap;html=1;fillColor=none;strokeColor=#b85450;strokeWidth=2;" parent="1" vertex="1">
                    <mxGeometry x="480" y="224.25" width="70" height="80" as="geometry"/>
                </mxCell>
                <mxCell id="25" value="Εισάγει" style="edgeStyle=none;html=1;rounded=0;strokeColor=#b85450;fillColor=#f8cecc;strokeWidth=2;" parent="1" source="20" target="124" edge="1">
                    <mxGeometry relative="1" as="geometry">
                        <mxPoint x="590" y="390" as="targetPoint"/>
                    </mxGeometry>
                </mxCell>
                <mxCell id="44" value="Δεν εισάγει" style="edgeStyle=none;html=1;rounded=0;strokeColor=#b85450;fillColor=#f8cecc;strokeWidth=2;" parent="1" source="20" target="27" edge="1">
                    <mxGeometry relative="1" as="geometry"/>
                </mxCell>
                <mxCell id="20" value="Επιλογή Εισαγωγής Διπλώματος" style="shape=umlBoundary;whiteSpace=wrap;html=1;fillColor=none;strokeColor=#b85450;strokeWidth=2;" parent="1" vertex="1">
                    <mxGeometry x="376.48" y="350" width="93.52" height="80" as="geometry"/>
                </mxCell>
                <mxCell id="24" value="Εισαγωγή Διπλώματος Οδήγησης" style="ellipse;whiteSpace=wrap;html=1;fillColor=none;strokeColor=#b85450;strokeWidth=2;" parent="1" vertex="1">
                    <mxGeometry x="810" y="360" width="120" height="60" as="geometry"/>
                </mxCell>
                <mxCell id="27" value="Κλείσιμο οθόνης" style="ellipse;shape=umlControl;whiteSpace=wrap;html=1;fillColor=none;strokeColor=#b85450;strokeWidth=2;" parent="1" vertex="1">
                    <mxGeometry x="610" y="440" width="70" height="80" as="geometry"/>
                </mxCell>
                <mxCell id="31" value="Εμφάνισε" style="ellipse;shape=umlControl;whiteSpace=wrap;html=1;fillColor=none;strokeColor=#b85450;strokeWidth=2;" parent="1" vertex="1">
                    <mxGeometry x="980" y="325" width="70" height="80" as="geometry"/>
                </mxCell>
                <mxCell id="45" value="Εμφάνισε" style="ellipse;shape=umlControl;whiteSpace=wrap;html=1;fillColor=none;strokeColor=#b85450;strokeWidth=2;" parent="1" vertex="1">
                    <mxGeometry x="681.62" y="525" width="66.76" height="80" as="geometry"/>
                </mxCell>
                <mxCell id="65" value="" style="edgeStyle=none;html=1;" parent="1" source="61" target="5Ba9WoWl8ZpEdoUwCl-l-30" edge="1">
                    <mxGeometry relative="1" as="geometry"/>
                </mxCell>
                <mxCell id="61" value="Εμφάνιση οχημάτων στον χάρτη" style="ellipse;shape=umlControl;whiteSpace=wrap;html=1;" parent="1" vertex="1">
                    <mxGeometry x="770" y="660" width="70" height="80" as="geometry"/>
                </mxCell>
                <mxCell id="87" style="edgeStyle=none;html=1;rounded=0;strokeColor=#b85450;fillColor=#f8cecc;strokeWidth=2;entryX=0.606;entryY=1.04;entryDx=0;entryDy=0;entryPerimeter=0;" parent="1" source="85" target="5Ba9WoWl8ZpEdoUwCl-l-30" edge="1">
                    <mxGeometry relative="1" as="geometry">
                        <Array as="points"/>
                    </mxGeometry>
                </mxCell>
                <mxCell id="85" value="Αφαίρεση οχήματος από χάρτη" style="ellipse;shape=umlControl;whiteSpace=wrap;html=1;fillColor=none;strokeColor=#b85450;strokeWidth=2;" parent="1" vertex="1">
                    <mxGeometry x="660" y="790" width="70" height="80" as="geometry"/>
                </mxCell>
                <mxCell id="94" style="edgeStyle=none;html=1;entryX=0.263;entryY=0.91;entryDx=0;entryDy=0;entryPerimeter=0;endArrow=classic;endFill=1;rounded=0;strokeColor=#b85450;fillColor=#f8cecc;strokeWidth=2;" parent="1" source="93" target="5Ba9WoWl8ZpEdoUwCl-l-30" edge="1">
                    <mxGeometry relative="1" as="geometry"/>
                </mxCell>
                <mxCell id="93" value="Κλείσιμο οθόνης" style="ellipse;shape=umlControl;whiteSpace=wrap;html=1;fillColor=none;strokeColor=#b85450;strokeWidth=2;" parent="1" vertex="1">
                    <mxGeometry x="533.52" y="760" width="50" height="60" as="geometry"/>
                </mxCell>
                <mxCell id="140" value="" style="edgeStyle=none;html=1;endArrow=classic;endFill=1;" parent="1" source="98" target="139" edge="1">
                    <mxGeometry relative="1" as="geometry"/>
                </mxCell>
                <mxCell id="98" value="Επικοινωνία με υπηρεσία χάρτη" style="ellipse;shape=umlControl;whiteSpace=wrap;html=1;" parent="1" vertex="1">
                    <mxGeometry x="1157.5" y="280" width="75" height="90" as="geometry"/>
                </mxCell>
                <mxCell id="101" value="" style="edgeStyle=none;html=1;endArrow=none;endFill=0;" parent="1" source="100" target="98" edge="1">
                    <mxGeometry relative="1" as="geometry"/>
                </mxCell>
                <mxCell id="100" value="Υπηρεσία Χάρτη" style="shape=umlActor;verticalLabelPosition=bottom;verticalAlign=top;html=1;" parent="1" vertex="1">
                    <mxGeometry x="1180" y="140" width="30" height="60" as="geometry"/>
                </mxCell>
                <mxCell id="109" value="Μήνυμα σφάλματος" style="shape=umlBoundary;whiteSpace=wrap;html=1;fillColor=none;strokeColor=#b85450;strokeWidth=2;" parent="1" vertex="1">
                    <mxGeometry x="870" y="440" width="90" height="70" as="geometry"/>
                </mxCell>
                <mxCell id="110" value="" style="edgeStyle=none;html=1;rounded=0;strokeColor=#b85450;fillColor=#f8cecc;strokeWidth=2;exitX=0.523;exitY=1.026;exitDx=0;exitDy=0;exitPerimeter=0;entryX=0.999;entryY=0.234;entryDx=0;entryDy=0;entryPerimeter=0;" parent="1" source="31" target="109" edge="1">
                    <mxGeometry relative="1" as="geometry">
                        <mxPoint x="910.0004846529705" y="500.594491977655" as="sourcePoint"/>
                        <mxPoint x="993.0987925277889" y="419.9974590473141" as="targetPoint"/>
                    </mxGeometry>
                </mxCell>
                <mxCell id="115" value="Μήνυμα σφάλματος" style="shape=umlBoundary;whiteSpace=wrap;html=1;fillColor=none;strokeColor=#b85450;strokeWidth=2;" parent="1" vertex="1">
                    <mxGeometry x="530" y="525" width="90" height="70" as="geometry"/>
                </mxCell>
                <mxCell id="117" value="" style="edgeStyle=none;html=1;rounded=0;strokeColor=#b85450;fillColor=#f8cecc;strokeWidth=2;entryX=1.05;entryY=0.54;entryDx=0;entryDy=0;entryPerimeter=0;exitX=-0.045;exitY=0.495;exitDx=0;exitDy=0;exitPerimeter=0;" parent="1" source="45" target="115" edge="1">
                    <mxGeometry relative="1" as="geometry">
                        <mxPoint x="950.0004846529706" y="880.594491977655" as="sourcePoint"/>
                        <mxPoint x="1033.098792527789" y="799.9974590473141" as="targetPoint"/>
                    </mxGeometry>
                </mxCell>
                <mxCell id="123" value="Φόρτιση Πορτοφολιού" style="ellipse;whiteSpace=wrap;html=1;fillColor=none;strokeColor=#b85450;strokeWidth=2;" parent="1" vertex="1">
                    <mxGeometry x="830" y="-95" width="120" height="60" as="geometry"/>
                </mxCell>
                <mxCell id="126" value="" style="edgeStyle=none;html=1;fontSize=12;fillColor=none;strokeColor=#b85450;strokeWidth=2;" parent="1" source="124" target="125" edge="1">
                    <mxGeometry relative="1" as="geometry"/>
                </mxCell>
                <mxCell id="124" value="Εμφάνισε" style="ellipse;shape=umlControl;whiteSpace=wrap;html=1;fillColor=none;strokeColor=#b85450;strokeWidth=2;" parent="1" vertex="1">
                    <mxGeometry x="555" y="355" width="60" height="70" as="geometry"/>
                </mxCell>
                <mxCell id="127" value="" style="edgeStyle=none;html=1;fontSize=12;fillColor=none;strokeColor=#b85450;strokeWidth=2;" parent="1" source="125" target="24" edge="1">
                    <mxGeometry relative="1" as="geometry"/>
                </mxCell>
                <mxCell id="125" value="Οθόνη εισαγωγής διπλώματος" style="shape=umlBoundary;whiteSpace=wrap;html=1;fillColor=none;strokeColor=#b85450;strokeWidth=2;" parent="1" vertex="1">
                    <mxGeometry x="680" y="355" width="90" height="70" as="geometry"/>
                </mxCell>
                <mxCell id="132" value="Χάρτης" style="shape=umlBoundary;whiteSpace=wrap;html=1;" parent="1" vertex="1">
                    <mxGeometry x="1196" y="520" width="90" height="70" as="geometry"/>
                </mxCell>
                <mxCell id="141" style="edgeStyle=none;html=1;entryX=0.443;entryY=0.016;entryDx=0;entryDy=0;entryPerimeter=0;endArrow=classic;endFill=1;" parent="1" source="139" target="132" edge="1">
                    <mxGeometry relative="1" as="geometry"/>
                </mxCell>
                <mxCell id="139" value="Εμφάνισε" style="ellipse;shape=umlControl;whiteSpace=wrap;html=1;" parent="1" vertex="1">
                    <mxGeometry x="1160" y="405" width="70" height="80" as="geometry"/>
                </mxCell>
                <mxCell id="142" value="Ξεκλείδωμα Οχήματος" style="ellipse;whiteSpace=wrap;html=1;" parent="1" vertex="1">
                    <mxGeometry x="363.24" y="1030" width="120" height="60" as="geometry"/>
                </mxCell>
            </root>
        </mxGraphModel>
    </diagram>
</mxfile>